:SAMPLES-PER-SECOND 30
:FULLY-SPECIFIED
:DEGREES
191
root  -64.2759 28.1239 6.50111 53.3043 66.245 24.9664
RightUpLeg  -47.6806 -16.1552 -20.2765
RightLeg  83.5213 1.94688 10.204
RightFoot  -11.2359 -0.0396362 -0.0253925
RightToes  -56.5176 -0.36197 -0.388254
Spine  15.5143 2.95123 5.62872
Spine1  28.3382 9.6167 3.71272
HEad  -4.49707 -12.4175 6.29734
LeftShoulder1  0 -2.42657e-020 -4.95415e-022
LeftArm  -8.02246 -9.79553 -94.9055
LeftForeArm  27.0245 -40.4458 -8.64732
LeftHand  0.011746 -10.3911 -0.499462
RightShoulder  0 2.42657e-020 1.07489e-018
RightArm  -32.9835 26.1036 47.7398
RightForeArm  80.6557 32.2876 6.28507
RightHand  -8.84748 16.5377 -55.7036
LeftUpLeg  -62.5213 10.5536 -7.35035
LeftLeg  77.1725 -7.02037 -22.4311
LeftFoot  -12.7793 0.630404 5.6249
LeftToes  -57.2768 1.71452e-006 7.46813e-008
192
root  -64.1039 28.2016 8.22392 50.0617 65.6703 21.0171
RightUpLeg  -50.9519 -15.8719 -24.2406
RightLeg  80.2463 -0.180837 -1.14283
RightFoot  -11.4261 0.196348 2.34012
RightToes  -39.2624 -0.212618 -0.310918
Spine  16.8667 4.26439 6.88722
Spine1  30.9151 11.7609 6.27289
HEad  -7.21091 -13.769 5.18864
LeftShoulder1  0 -2.42657e-020 -4.95415e-022
LeftArm  -6.13871 -11.9236 -97.8147
LeftForeArm  28.9374 -39.0887 -8.2353
LeftHand  -0.0817362 -10.6965 0.503445
RightShoulder  0 2.42657e-020 1.07489e-018
RightArm  -36.2533 27.1915 41.7367
RightForeArm  80.0138 24.9204 4.59167
RightHand  -9.50233 21.5476 -46.8321
LeftUpLeg  -60.5428 8.55306 -11.4887
LeftLeg  76.0772 -10.1883 -29.1563
LeftFoot  -13.826 1.00498 8.27476
LeftToes  -51.7731 1.71452e-006 7.46813e-008
193
root  -63.8207 27.9754 10.0713 43.3803 63.2033 12.9786
RightUpLeg  -54.9329 -15.391 -27.0832
RightLeg  68.8467 -3.04781 -6.70457
RightFoot  -10.1774 0.268975 3.39764
RightToes  -29.8244 -0.142713 -0.250743
Spine  18.1516 6.4525 7.97139
Spine1  33.4839 15.2421 8.66854
HEad  -7.16107 -13.5094 2.01224
LeftShoulder1  0 -2.42657e-020 -4.95415e-022
LeftArm  -6.03382 -13.0753 -100.207
LeftForeArm  27.6083 -37.9958 -7.91627
LeftHand  -0.0752732 -10.3209 0.46383
RightShoulder  0 2.42657e-020 1.07489e-018
RightArm  -53.9267 31.7274 37.5582
RightForeArm  77.267 13.4265 2.32093
RightHand  -6.84874 22.5809 -33.0075
LeftUpLeg  -56.3897 7.40507 -10.6365
LeftLeg  71.1077 -4.25252 -10.1297
LeftFoot  -28.393 1.21961 4.81843
LeftToes  -12.8227 1.71452e-006 7.46813e-008
194
root  -63.5354 27.5416 12.0978 39.1052 60.3532 6.44157
RightUpLeg  -59.5869 -14.4545 -28.5809
RightLeg  54.9053 -3.97211 -4.98938
RightFoot  -2.42631 0.0384526 2.19382
RightToes  -38.5416 -0.206939 -0.306737
Spine  17.7986 8.1928 8.4356
Spine1  33.527 17.5431 10.3544
HEad  -4.83648 -11.7698 -3.43934
LeftShoulder1  0 -2.42657e-020 -4.95415e-022
LeftArm  -8.20835 -11.7149 -100.55
LeftForeArm  29.5201 -36.9216 -7.61089
LeftHand  -0.205921 -9.8117 2.0302
RightShoulder  0 2.42657e-020 1.07489e-018
RightArm  -78.6277 32.628 34.6756
RightForeArm  49.6063 6.30605 1.09583
RightHand  -2.42484 14.648 -18.3391
LeftUpLeg  -53.5508 5.86457 -6.81051
LeftLeg  68.322 1.24949 2.61945
LeftFoot  -36.9679 -0.877789 -2.62548
LeftToes  -10.4223 1.71452e-006 7.46813e-008
195
root  -63.3247 26.9539 14.4091 36.417 58.9837 3.02977
RightUpLeg  -62.2409 -11.8834 -29.876
RightLeg  50.0306 -1.29217 -1.40022
RightFoot  1.74358 -0.0196127 1.66572
RightToes  -56.5291 -0.362076 -0.38829
Spine  17.1218 8.67516 8.54972
Spine1  32.7831 17.6942 11.1957
HEad  -4.67555 -8.79611 -6.17239
LeftShoulder1  0 -2.42657e-020 -4.95415e-022
LeftArm  -10.3673 -10.8782 -97.9472
LeftForeArm  30.3424 -35.8152 -7.30588
LeftHand  -0.212533 -9.52896 2.18115
RightShoulder  0 2.42657e-020 1.07489e-018
RightArm  -96.8503 30.6122 35.1402
RightForeArm  19.3368 5.25048 0.933875
RightHand  -2.20046 21.0697 -11.4255
LeftUpLeg  -52.1274 4.16974 -0.409162
LeftLeg  71.5647 2.36393 5.77821
LeftFoot  -36.4142 -1.59208 -4.83774
LeftToes  -19.6795 1.71452e-006 7.46813e-008
196
root  -62.9022 26.4794 16.6389 35.134 60.4865 4.08578
RightUpLeg  -60.8896 -15.3408 -26.5691
RightLeg  56.6362 2.18824 2.82514
RightFoot  -6.28853 0.0455176 1.20627
RightToes  -65.7477 -0.449448 -0.410281
Spine  17.2813 6.74036 9.29168
Spine1  33.4245 14.4247 10.2098
HEad  -5.31854 -2.98175 -9.2127
LeftShoulder1  0 -2.42657e-020 -4.95415e-022
LeftArm  -16.2102 -9.98599 -94.9521
LeftForeArm  28.5472 -36.1122 -7.38764
LeftHand  -0.179593 -9.03542 1.90418
RightShoulder  0 2.42657e-020 1.07489e-018
RightArm  -108.915 31.244 41.3033
RightForeArm  37.0961 11.9477 2.12953
RightHand  -1.21135 20.9303 -6.18306
LeftUpLeg  -51.6923 1.10938 4.20578
LeftLeg  79.5126 2.10805 8.26255
LeftFoot  -26.7231 -1.20603 -5.07437
LeftToes  -37.2816 1.71452e-006 7.46813e-008
197
root  -62.3513 26.72 18.3552 33.3761 60.1014 1.93739
RightUpLeg  -61.8741 -17.343 -21.9014
RightLeg  60.5522 4.54544 6.83563
RightFoot  -8.78733 -0.0306667 -0.0215775
RightToes  -66.108 -0.452926 -0.410852
Spine  16.9484 5.12211 9.79842
Spine1  33.228 11.784 9.43589
HEad  -7.7185 2.91626 -13.5459
LeftShoulder1  0 -2.42657e-020 -4.95415e-022
LeftArm  -23.0672 -7.7517 -94.55
LeftForeArm  25.143 -35.4272 -7.20303
LeftHand  -0.190381 -7.99368 2.35631
RightShoulder  0 2.42657e-020 1.07489e-018
RightArm  -117.817 32.0003 43.9762
RightForeArm  33.4185 15.6148 2.81713
RightHand  2.49556 24.9106 11.6367
LeftUpLeg  -56.6106 -1.50227 7.18413
LeftLeg  89.3873 0.790107 10.3153
LeftFoot  -15.2006 -0.520243 -3.89742
LeftToes  -20.4022 1.71452e-006 7.46813e-008
